<?xml version="1.0" encoding="UTF-8"?> <svg xmlns="http://www.w3.org/2000/svg" width="512" height="512" viewBox="0 0 512 512" fill="none"><rect width="512" height="512" fill="white"></rect><g clip-path="url(#clip0_2083_3)"><path d="M196.29 384.143C147.887 381.404 109.346 341.161 109.346 292.079C109.346 241.231 150.711 199.862 201.555 199.862C224.295 199.862 246.13 208.206 263.04 223.357C282.568 240.824 293.772 265.875 293.772 292.079C293.772 314.055 285.888 335.216 271.823 351.781C281.799 358.244 293.251 362.105 305.187 362.986C319.551 342.075 327.118 317.677 327.118 292.079C327.118 264.654 318.436 238.606 302.011 216.749C288.96 199.376 271.591 185.622 251.779 176.973C240.799 172.17 229.317 169.011 217.491 167.521C241.395 149.924 250.536 135.176 250.536 122.313C250.536 106.877 238.023 94.3637 222.587 94.3637C214.199 94.3637 206.681 98.0631 201.558 103.913C196.435 98.0631 188.916 94.3637 180.53 94.3637C165.094 94.3637 152.581 106.877 152.581 122.313C152.581 135.178 161.724 149.928 185.636 167.528C123.894 175.376 76 228.24 76 292.079C76 361.311 132.324 417.635 201.555 417.635C211.127 417.635 220.524 416.573 229.672 414.479C217.103 406.168 205.815 395.938 196.29 384.143V384.143Z" fill="#343036"></path><path d="M310.445 166.525C300.873 166.525 291.476 167.587 282.328 169.68C294.897 177.991 306.185 188.221 315.71 200.016C364.114 202.755 402.655 242.998 402.655 292.079C402.655 342.928 361.29 384.296 310.446 384.296C287.707 384.296 265.871 375.952 248.961 360.802C229.433 343.334 218.229 318.283 218.229 292.079C218.229 270.103 226.112 248.941 240.178 232.377C230.202 225.914 218.75 222.053 206.814 221.172C192.449 242.083 184.883 266.481 184.883 292.079C184.883 319.504 193.564 345.552 209.99 367.409C223.04 384.782 240.41 398.536 260.222 407.185C276.077 414.12 292.972 417.634 310.446 417.634C379.677 417.634 436.001 361.31 436.001 292.079C436 222.848 379.676 166.525 310.445 166.525V166.525Z" fill="#0C948C"></path></g><defs><clipPath id="clip0_2083_3"><rect width="360" height="360" fill="white" transform="translate(76 76)"></rect></clipPath></defs></svg> 